<svg width="20" height="20" viewBox="0 0 20 20" fill="none" xmlns="http://www.w3.org/2000/svg">
<path d="M18.466 10.8906C18.3458 10.7701 18.195 10.6846 18.0298 10.6433C17.8646 10.602 17.6913 10.6065 17.5285 10.6562C16.3911 10.9996 15.1819 11.028 14.0296 10.7385C12.8773 10.4489 11.8252 9.8522 10.9852 9.01192C10.1452 8.17164 9.54894 7.11926 9.25982 5.96687C8.97069 4.81448 8.99957 3.60524 9.34337 2.46797C9.39353 2.30508 9.39833 2.1316 9.35727 1.96618C9.3162 1.80077 9.23082 1.64968 9.1103 1.52916C8.98978 1.40865 8.8387 1.32327 8.67328 1.2822C8.50787 1.24113 8.33439 1.24594 8.1715 1.29609C6.46087 1.82187 4.95969 2.87387 3.88166 4.30234C2.93892 5.55538 2.36403 7.04634 2.22147 8.60792C2.07891 10.1695 2.37434 11.7399 3.07459 13.1429C3.77485 14.546 4.85223 15.7261 6.18585 16.5509C7.51947 17.3757 9.05655 17.8126 10.6246 17.8125C12.4554 17.8179 14.2373 17.2226 15.6973 16.118C17.125 15.0389 18.1759 13.5368 18.7004 11.8258C18.7497 11.6633 18.7539 11.4905 18.7126 11.3258C18.6714 11.1611 18.5861 11.0107 18.466 10.8906ZM14.5692 14.6203C13.3055 15.5716 11.7407 16.0345 10.1629 15.9238C8.58506 15.8131 7.10029 15.1362 5.98184 14.0178C4.86339 12.8993 4.18653 11.4146 4.07582 9.83672C3.96511 8.25888 4.42801 6.69414 5.37931 5.43047C5.87988 4.76833 6.50025 4.206 7.20822 3.77265C7.19416 3.97265 7.18712 4.17344 7.18712 4.375C7.18961 6.612 8.07935 8.75667 9.66115 10.3385C11.243 11.9203 13.3876 12.81 15.6246 12.8125C15.8262 12.8125 16.027 12.8055 16.227 12.7914C15.7938 13.4995 15.2315 14.1199 14.5692 14.6203Z" fill="#452667"/>
<path d="M18.466 10.8906C18.3458 10.7701 18.195 10.6846 18.0298 10.6433C17.8646 10.602 17.6913 10.6065 17.5285 10.6562C16.3911 10.9996 15.1819 11.028 14.0296 10.7385C12.8773 10.4489 11.8252 9.8522 10.9852 9.01192C10.1452 8.17164 9.54894 7.11926 9.25982 5.96687C8.97069 4.81448 8.99957 3.60524 9.34337 2.46797C9.39353 2.30508 9.39833 2.1316 9.35727 1.96618C9.3162 1.80077 9.23082 1.64968 9.1103 1.52916C8.98978 1.40865 8.8387 1.32327 8.67328 1.2822C8.50787 1.24113 8.33439 1.24594 8.1715 1.29609C6.46087 1.82187 4.95969 2.87387 3.88166 4.30234C2.93892 5.55538 2.36403 7.04634 2.22147 8.60792C2.07891 10.1695 2.37434 11.7399 3.07459 13.1429C3.77485 14.546 4.85223 15.7261 6.18585 16.5509C7.51947 17.3757 9.05655 17.8126 10.6246 17.8125C12.4554 17.8179 14.2373 17.2226 15.6973 16.118C17.125 15.0389 18.1759 13.5368 18.7004 11.8258C18.7497 11.6633 18.7539 11.4905 18.7126 11.3258C18.6714 11.1611 18.5861 11.0107 18.466 10.8906ZM14.5692 14.6203C13.3055 15.5716 11.7407 16.0345 10.1629 15.9238C8.58506 15.8131 7.10029 15.1362 5.98184 14.0178C4.86339 12.8993 4.18653 11.4146 4.07582 9.83672C3.96511 8.25888 4.42801 6.69414 5.37931 5.43047C5.87988 4.76833 6.50025 4.206 7.20822 3.77265C7.19416 3.97265 7.18712 4.17344 7.18712 4.375C7.18961 6.612 8.07935 8.75667 9.66115 10.3385C11.243 11.9203 13.3876 12.81 15.6246 12.8125C15.8262 12.8125 16.027 12.8055 16.227 12.7914C15.7938 13.4995 15.2315 14.1199 14.5692 14.6203Z" fill="#EA5E9C"/>
</svg>
