<svg width="20" height="20" viewBox="0 0 20 20" fill="none" xmlns="http://www.w3.org/2000/svg">
<path d="M1.9365 9.49923C2.03493 9.5733 2.14698 9.62725 2.26626 9.65799C2.38554 9.68874 2.50971 9.69568 2.63168 9.67841C2.75364 9.66114 2.87101 9.62001 2.97706 9.55736C3.08312 9.49471 3.1758 9.41177 3.24979 9.31329C3.59907 8.84741 4.05205 8.46926 4.57283 8.20881C5.09362 7.94836 5.6679 7.81277 6.25018 7.81277C6.83246 7.81277 7.40674 7.94836 7.92752 8.20881C8.4483 8.46926 8.90128 8.84741 9.25057 9.31329C9.39987 9.51208 9.62202 9.64343 9.86815 9.67844C10.1143 9.71346 10.3643 9.64928 10.5631 9.50001C10.6334 9.44665 10.6959 9.38381 10.749 9.31329C11.0983 8.84741 11.5513 8.46926 12.0721 8.20881C12.5928 7.94836 13.1671 7.81277 13.7494 7.81277C14.3317 7.81277 14.906 7.94836 15.4267 8.20881C15.9475 8.46926 16.4005 8.84741 16.7498 9.31329C16.823 9.4135 16.9155 9.49817 17.0217 9.56239C17.1279 9.6266 17.2459 9.66908 17.3686 9.68735C17.4914 9.70563 17.6166 9.69934 17.7369 9.66885C17.8573 9.63836 17.9703 9.58428 18.0696 9.50974C18.1689 9.4352 18.2523 9.34169 18.3152 9.23464C18.378 9.12759 18.419 9.00912 18.4356 8.88612C18.4523 8.76312 18.4444 8.63802 18.4124 8.5181C18.3804 8.39817 18.3248 8.2858 18.249 8.18751C17.7275 7.48924 17.0508 6.92171 16.2724 6.5297C16.6131 6.06382 16.818 5.51272 16.8646 4.93748C16.9112 4.36225 16.7975 3.78535 16.5363 3.27075C16.2751 2.75614 15.8764 2.32393 15.3846 2.02202C14.8927 1.7201 14.3269 1.56029 13.7498 1.56029C13.1727 1.56029 12.6068 1.7201 12.115 2.02202C11.6231 2.32393 11.2245 2.75614 10.9633 3.27075C10.702 3.78535 10.5884 4.36225 10.635 4.93748C10.6816 5.51272 10.8865 6.06382 11.2271 6.5297C10.7823 6.7528 10.3694 7.03475 9.99979 7.36798C9.63018 7.03448 9.21736 6.75226 8.77244 6.52891C9.11306 6.06304 9.31802 5.51194 9.36459 4.9367C9.41117 4.36147 9.29754 3.78457 9.03631 3.26997C8.77507 2.75536 8.37644 2.32315 7.88459 2.02123C7.39275 1.71932 6.8269 1.55951 6.24979 1.55951C5.67267 1.55951 5.10683 1.71932 4.61498 2.02123C4.12313 2.32315 3.7245 2.75536 3.46327 3.26997C3.20203 3.78457 3.0884 4.36147 3.13498 4.9367C3.18155 5.51194 3.38651 6.06304 3.72713 6.52891C2.94874 6.92093 2.27209 7.48846 1.75057 8.18673C1.60122 8.38545 1.5369 8.63535 1.57177 8.88148C1.60664 9.12761 1.73783 9.34981 1.9365 9.49923ZM13.7498 3.43751C13.997 3.43751 14.2387 3.51082 14.4442 3.64817C14.6498 3.78552 14.81 3.98075 14.9046 4.20915C14.9992 4.43756 15.024 4.68889 14.9758 4.93137C14.9275 5.17385 14.8085 5.39658 14.6337 5.57139C14.4589 5.74621 14.2361 5.86526 13.9936 5.91349C13.7512 5.96172 13.4998 5.93697 13.2714 5.84236C13.043 5.74775 12.8478 5.58753 12.7104 5.38197C12.5731 5.17641 12.4998 4.93473 12.4998 4.68751C12.4998 4.35599 12.6315 4.03805 12.8659 3.80362C13.1003 3.5692 13.4183 3.43751 13.7498 3.43751ZM6.24979 3.43751C6.49701 3.43751 6.73869 3.51082 6.94425 3.64817C7.14981 3.78552 7.31003 3.98075 7.40464 4.20915C7.49925 4.43756 7.524 4.68889 7.47577 4.93137C7.42754 5.17385 7.30849 5.39658 7.13367 5.57139C6.95885 5.74621 6.73612 5.86526 6.49365 5.91349C6.25117 5.96172 5.99984 5.93697 5.77143 5.84236C5.54302 5.74775 5.3478 5.58753 5.21045 5.38197C5.0731 5.17641 4.99979 4.93473 4.99979 4.68751C4.99979 4.35599 5.13148 4.03805 5.3659 3.80362C5.60032 3.5692 5.91827 3.43751 6.24979 3.43751ZM16.2724 15.2789C16.6131 14.813 16.818 14.2619 16.8646 13.6867C16.9112 13.1115 16.7975 12.5346 16.5363 12.02C16.2751 11.5054 15.8764 11.0731 15.3846 10.7712C14.8927 10.4693 14.3269 10.3095 13.7498 10.3095C13.1727 10.3095 12.6068 10.4693 12.115 10.7712C11.6231 11.0731 11.2245 11.5054 10.9633 12.02C10.702 12.5346 10.5884 13.1115 10.635 13.6867C10.6816 14.2619 10.8865 14.813 11.2271 15.2789C10.7824 15.5023 10.3696 15.7842 9.99979 16.1172C9.62995 15.7842 9.21716 15.5023 8.77244 15.2789C9.11306 14.813 9.31802 14.2619 9.36459 13.6867C9.41117 13.1115 9.29754 12.5346 9.03631 12.02C8.77507 11.5054 8.37644 11.0731 7.88459 10.7712C7.39275 10.4693 6.8269 10.3095 6.24979 10.3095C5.67267 10.3095 5.10683 10.4693 4.61498 10.7712C4.12313 11.0731 3.7245 11.5054 3.46327 12.02C3.20203 12.5346 3.0884 13.1115 3.13498 13.6867C3.18155 14.2619 3.38651 14.813 3.72713 15.2789C2.94874 15.6709 2.27209 16.2385 1.75057 16.9367C1.60118 17.1355 1.53688 17.3855 1.57182 17.6318C1.60677 17.878 1.73809 18.1002 1.9369 18.2496C2.1357 18.399 2.38572 18.4633 2.63193 18.4284C2.87815 18.3934 3.10039 18.2621 3.24979 18.0633C3.59907 17.5974 4.05205 17.2193 4.57283 16.9588C5.09362 16.6984 5.6679 16.5628 6.25018 16.5628C6.83246 16.5628 7.40674 16.6984 7.92752 16.9588C8.4483 17.2193 8.90128 17.5974 9.25057 18.0633C9.39987 18.2621 9.62202 18.3934 9.86815 18.4284C10.1143 18.4635 10.3643 18.3993 10.5631 18.25C10.6334 18.1966 10.6959 18.1338 10.749 18.0633C11.0983 17.5974 11.5513 17.2193 12.0721 16.9588C12.5928 16.6984 13.1671 16.5628 13.7494 16.5628C14.3317 16.5628 14.906 16.6984 15.4267 16.9588C15.9475 17.2193 16.4005 17.5974 16.7498 18.0633C16.823 18.1635 16.9155 18.2482 17.0217 18.3124C17.1279 18.3766 17.2459 18.4191 17.3686 18.4374C17.4914 18.4556 17.6166 18.4493 17.7369 18.4188C17.8573 18.3884 17.9703 18.3343 18.0696 18.2597C18.1689 18.1852 18.2523 18.0917 18.3152 17.9846C18.378 17.8776 18.419 17.7591 18.4356 17.6361C18.4523 17.5131 18.4444 17.388 18.4124 17.2681C18.3804 17.1482 18.3248 17.0358 18.249 16.9375C17.7278 16.2388 17.0511 15.6709 16.2724 15.2789ZM6.24979 12.1875C6.49701 12.1875 6.73869 12.2608 6.94425 12.3982C7.14981 12.5355 7.31003 12.7307 7.40464 12.9592C7.49925 13.1876 7.524 13.4389 7.47577 13.6814C7.42754 13.9238 7.30849 14.1466 7.13367 14.3214C6.95885 14.4962 6.73612 14.6153 6.49365 14.6635C6.25117 14.7117 5.99984 14.687 5.77143 14.5924C5.54302 14.4977 5.3478 14.3375 5.21045 14.132C5.0731 13.9264 4.99979 13.6847 4.99979 13.4375C4.99979 13.106 5.13148 12.788 5.3659 12.5536C5.60032 12.3192 5.91827 12.1875 6.24979 12.1875ZM13.7498 12.1875C13.997 12.1875 14.2387 12.2608 14.4442 12.3982C14.6498 12.5355 14.81 12.7307 14.9046 12.9592C14.9992 13.1876 15.024 13.4389 14.9758 13.6814C14.9275 13.9238 14.8085 14.1466 14.6337 14.3214C14.4589 14.4962 14.2361 14.6153 13.9936 14.6635C13.7512 14.7117 13.4998 14.687 13.2714 14.5924C13.043 14.4977 12.8478 14.3375 12.7104 14.132C12.5731 13.9264 12.4998 13.6847 12.4998 13.4375C12.4998 13.106 12.6315 12.788 12.8659 12.5536C13.1003 12.3192 13.4183 12.1875 13.7498 12.1875Z" fill="#452667"/>
<path d="M1.9365 9.49923C2.03493 9.5733 2.14698 9.62725 2.26626 9.65799C2.38554 9.68874 2.50971 9.69568 2.63168 9.67841C2.75364 9.66114 2.87101 9.62001 2.97706 9.55736C3.08312 9.49471 3.1758 9.41177 3.24979 9.31329C3.59907 8.84741 4.05205 8.46926 4.57283 8.20881C5.09362 7.94836 5.6679 7.81277 6.25018 7.81277C6.83246 7.81277 7.40674 7.94836 7.92752 8.20881C8.4483 8.46926 8.90128 8.84741 9.25057 9.31329C9.39987 9.51208 9.62202 9.64343 9.86815 9.67844C10.1143 9.71346 10.3643 9.64928 10.5631 9.50001C10.6334 9.44665 10.6959 9.38381 10.749 9.31329C11.0983 8.84741 11.5513 8.46926 12.0721 8.20881C12.5928 7.94836 13.1671 7.81277 13.7494 7.81277C14.3317 7.81277 14.906 7.94836 15.4267 8.20881C15.9475 8.46926 16.4005 8.84741 16.7498 9.31329C16.823 9.4135 16.9155 9.49817 17.0217 9.56239C17.1279 9.6266 17.2459 9.66908 17.3686 9.68735C17.4914 9.70563 17.6166 9.69934 17.7369 9.66885C17.8573 9.63836 17.9703 9.58428 18.0696 9.50974C18.1689 9.4352 18.2523 9.34169 18.3152 9.23464C18.378 9.12759 18.419 9.00912 18.4356 8.88612C18.4523 8.76312 18.4444 8.63802 18.4124 8.5181C18.3804 8.39817 18.3248 8.2858 18.249 8.18751C17.7275 7.48924 17.0508 6.92171 16.2724 6.5297C16.6131 6.06382 16.818 5.51272 16.8646 4.93748C16.9112 4.36225 16.7975 3.78535 16.5363 3.27075C16.2751 2.75614 15.8764 2.32393 15.3846 2.02202C14.8927 1.7201 14.3269 1.56029 13.7498 1.56029C13.1727 1.56029 12.6068 1.7201 12.115 2.02202C11.6231 2.32393 11.2245 2.75614 10.9633 3.27075C10.702 3.78535 10.5884 4.36225 10.635 4.93748C10.6816 5.51272 10.8865 6.06382 11.2271 6.5297C10.7823 6.7528 10.3694 7.03475 9.99979 7.36798C9.63018 7.03448 9.21736 6.75226 8.77244 6.52891C9.11306 6.06304 9.31802 5.51194 9.36459 4.9367C9.41117 4.36147 9.29754 3.78457 9.03631 3.26997C8.77507 2.75536 8.37644 2.32315 7.88459 2.02123C7.39275 1.71932 6.8269 1.55951 6.24979 1.55951C5.67267 1.55951 5.10683 1.71932 4.61498 2.02123C4.12313 2.32315 3.7245 2.75536 3.46327 3.26997C3.20203 3.78457 3.0884 4.36147 3.13498 4.9367C3.18155 5.51194 3.38651 6.06304 3.72713 6.52891C2.94874 6.92093 2.27209 7.48846 1.75057 8.18673C1.60122 8.38545 1.5369 8.63535 1.57177 8.88148C1.60664 9.12761 1.73783 9.34981 1.9365 9.49923ZM13.7498 3.43751C13.997 3.43751 14.2387 3.51082 14.4442 3.64817C14.6498 3.78552 14.81 3.98075 14.9046 4.20915C14.9992 4.43756 15.024 4.68889 14.9758 4.93137C14.9275 5.17385 14.8085 5.39658 14.6337 5.57139C14.4589 5.74621 14.2361 5.86526 13.9936 5.91349C13.7512 5.96172 13.4998 5.93697 13.2714 5.84236C13.043 5.74775 12.8478 5.58753 12.7104 5.38197C12.5731 5.17641 12.4998 4.93473 12.4998 4.68751C12.4998 4.35599 12.6315 4.03805 12.8659 3.80362C13.1003 3.5692 13.4183 3.43751 13.7498 3.43751ZM6.24979 3.43751C6.49701 3.43751 6.73869 3.51082 6.94425 3.64817C7.14981 3.78552 7.31003 3.98075 7.40464 4.20915C7.49925 4.43756 7.524 4.68889 7.47577 4.93137C7.42754 5.17385 7.30849 5.39658 7.13367 5.57139C6.95885 5.74621 6.73612 5.86526 6.49365 5.91349C6.25117 5.96172 5.99984 5.93697 5.77143 5.84236C5.54302 5.74775 5.3478 5.58753 5.21045 5.38197C5.0731 5.17641 4.99979 4.93473 4.99979 4.68751C4.99979 4.35599 5.13148 4.03805 5.3659 3.80362C5.60032 3.5692 5.91827 3.43751 6.24979 3.43751ZM16.2724 15.2789C16.6131 14.813 16.818 14.2619 16.8646 13.6867C16.9112 13.1115 16.7975 12.5346 16.5363 12.02C16.2751 11.5054 15.8764 11.0731 15.3846 10.7712C14.8927 10.4693 14.3269 10.3095 13.7498 10.3095C13.1727 10.3095 12.6068 10.4693 12.115 10.7712C11.6231 11.0731 11.2245 11.5054 10.9633 12.02C10.702 12.5346 10.5884 13.1115 10.635 13.6867C10.6816 14.2619 10.8865 14.813 11.2271 15.2789C10.7824 15.5023 10.3696 15.7842 9.99979 16.1172C9.62995 15.7842 9.21716 15.5023 8.77244 15.2789C9.11306 14.813 9.31802 14.2619 9.36459 13.6867C9.41117 13.1115 9.29754 12.5346 9.03631 12.02C8.77507 11.5054 8.37644 11.0731 7.88459 10.7712C7.39275 10.4693 6.8269 10.3095 6.24979 10.3095C5.67267 10.3095 5.10683 10.4693 4.61498 10.7712C4.12313 11.0731 3.7245 11.5054 3.46327 12.02C3.20203 12.5346 3.0884 13.1115 3.13498 13.6867C3.18155 14.2619 3.38651 14.813 3.72713 15.2789C2.94874 15.6709 2.27209 16.2385 1.75057 16.9367C1.60118 17.1355 1.53688 17.3855 1.57182 17.6318C1.60677 17.878 1.73809 18.1002 1.9369 18.2496C2.1357 18.399 2.38572 18.4633 2.63193 18.4284C2.87815 18.3934 3.10039 18.2621 3.24979 18.0633C3.59907 17.5974 4.05205 17.2193 4.57283 16.9588C5.09362 16.6984 5.6679 16.5628 6.25018 16.5628C6.83246 16.5628 7.40674 16.6984 7.92752 16.9588C8.4483 17.2193 8.90128 17.5974 9.25057 18.0633C9.39987 18.2621 9.62202 18.3934 9.86815 18.4284C10.1143 18.4635 10.3643 18.3993 10.5631 18.25C10.6334 18.1966 10.6959 18.1338 10.749 18.0633C11.0983 17.5974 11.5513 17.2193 12.0721 16.9588C12.5928 16.6984 13.1671 16.5628 13.7494 16.5628C14.3317 16.5628 14.906 16.6984 15.4267 16.9588C15.9475 17.2193 16.4005 17.5974 16.7498 18.0633C16.823 18.1635 16.9155 18.2482 17.0217 18.3124C17.1279 18.3766 17.2459 18.4191 17.3686 18.4374C17.4914 18.4556 17.6166 18.4493 17.7369 18.4188C17.8573 18.3884 17.9703 18.3343 18.0696 18.2597C18.1689 18.1852 18.2523 18.0917 18.3152 17.9846C18.378 17.8776 18.419 17.7591 18.4356 17.6361C18.4523 17.5131 18.4444 17.388 18.4124 17.2681C18.3804 17.1482 18.3248 17.0358 18.249 16.9375C17.7278 16.2388 17.0511 15.6709 16.2724 15.2789ZM6.24979 12.1875C6.49701 12.1875 6.73869 12.2608 6.94425 12.3982C7.14981 12.5355 7.31003 12.7307 7.40464 12.9592C7.49925 13.1876 7.524 13.4389 7.47577 13.6814C7.42754 13.9238 7.30849 14.1466 7.13367 14.3214C6.95885 14.4962 6.73612 14.6153 6.49365 14.6635C6.25117 14.7117 5.99984 14.687 5.77143 14.5924C5.54302 14.4977 5.3478 14.3375 5.21045 14.132C5.0731 13.9264 4.99979 13.6847 4.99979 13.4375C4.99979 13.106 5.13148 12.788 5.3659 12.5536C5.60032 12.3192 5.91827 12.1875 6.24979 12.1875ZM13.7498 12.1875C13.997 12.1875 14.2387 12.2608 14.4442 12.3982C14.6498 12.5355 14.81 12.7307 14.9046 12.9592C14.9992 13.1876 15.024 13.4389 14.9758 13.6814C14.9275 13.9238 14.8085 14.1466 14.6337 14.3214C14.4589 14.4962 14.2361 14.6153 13.9936 14.6635C13.7512 14.7117 13.4998 14.687 13.2714 14.5924C13.043 14.4977 12.8478 14.3375 12.7104 14.132C12.5731 13.9264 12.4998 13.6847 12.4998 13.4375C12.4998 13.106 12.6315 12.788 12.8659 12.5536C13.1003 12.3192 13.4183 12.1875 13.7498 12.1875Z" fill="#EA5E9C"/>
</svg>
