<svg width="24" height="25" viewBox="0 0 24 25" fill="none" xmlns="http://www.w3.org/2000/svg">
<g clip-path="url(#clip0_29_4578)">
<mask id="mask0_29_4578" style="mask-type:luminance" maskUnits="userSpaceOnUse" x="0" y="0" width="24" height="25">
<path d="M23.5568 10.3738H12.375V15.0102H18.8114C18.2114 17.9557 15.7023 19.6466 12.375 19.6466C8.44773 19.6466 5.28409 16.4829 5.28409 12.5557C5.28409 8.62839 8.44773 5.46476 12.375 5.46476C14.0659 5.46476 15.5932 6.06476 16.7932 7.04658L20.2841 3.55567C18.1568 1.70112 15.4296 0.555664 12.375 0.555664C5.72046 0.555664 0.375 5.90112 0.375 12.5557C0.375 19.2102 5.72046 24.5557 12.375 24.5557C18.375 24.5557 23.8296 20.192 23.8296 12.5557C23.8296 11.8466 23.7205 11.0829 23.5568 10.3738Z" fill="white"/>
</mask>
<g mask="url(#mask0_29_4578)">
<path d="M-0.71582 19.6467V5.46484L8.55691 12.5558L-0.71582 19.6467Z" fill="#FBBC05"/>
</g>
<mask id="mask1_29_4578" style="mask-type:luminance" maskUnits="userSpaceOnUse" x="0" y="0" width="24" height="25">
<path d="M23.5568 10.3738H12.375V15.0102H18.8114C18.2114 17.9557 15.7023 19.6466 12.375 19.6466C8.44773 19.6466 5.28409 16.4829 5.28409 12.5557C5.28409 8.62839 8.44773 5.46476 12.375 5.46476C14.0659 5.46476 15.5932 6.06476 16.7932 7.04658L20.2841 3.55567C18.1568 1.70112 15.4296 0.555664 12.375 0.555664C5.72046 0.555664 0.375 5.90112 0.375 12.5557C0.375 19.2102 5.72046 24.5557 12.375 24.5557C18.375 24.5557 23.8296 20.192 23.8296 12.5557C23.8296 11.8466 23.7205 11.0829 23.5568 10.3738Z" fill="white"/>
</mask>
<g mask="url(#mask1_29_4578)">
<path d="M-0.71582 5.46485L8.55691 12.5558L12.3751 9.22848L25.466 7.10121V-0.535156H-0.71582V5.46485Z" fill="#E73D1C"/>
</g>
<mask id="mask2_29_4578" style="mask-type:luminance" maskUnits="userSpaceOnUse" x="0" y="0" width="24" height="25">
<path d="M23.5568 10.3738H12.375V15.0102H18.8114C18.2114 17.9557 15.7023 19.6466 12.375 19.6466C8.44773 19.6466 5.28409 16.4829 5.28409 12.5557C5.28409 8.62839 8.44773 5.46476 12.375 5.46476C14.0659 5.46476 15.5932 6.06476 16.7932 7.04658L20.2841 3.55567C18.1568 1.70112 15.4296 0.555664 12.375 0.555664C5.72046 0.555664 0.375 5.90112 0.375 12.5557C0.375 19.2102 5.72046 24.5557 12.375 24.5557C18.375 24.5557 23.8296 20.192 23.8296 12.5557C23.8296 11.8466 23.7205 11.0829 23.5568 10.3738Z" fill="white"/>
</mask>
<g mask="url(#mask2_29_4578)">
<path d="M-0.71582 19.6467L15.6478 7.10121L19.9569 7.64666L25.466 -0.535156V25.6467H-0.71582V19.6467Z" fill="#34A853"/>
</g>
<mask id="mask3_29_4578" style="mask-type:luminance" maskUnits="userSpaceOnUse" x="0" y="0" width="24" height="25">
<path d="M23.5568 10.3738H12.375V15.0102H18.8114C18.2114 17.9557 15.7023 19.6466 12.375 19.6466C8.44773 19.6466 5.28409 16.4829 5.28409 12.5557C5.28409 8.62839 8.44773 5.46476 12.375 5.46476C14.0659 5.46476 15.5932 6.06476 16.7932 7.04658L20.2841 3.55567C18.1568 1.70112 15.4296 0.555664 12.375 0.555664C5.72046 0.555664 0.375 5.90112 0.375 12.5557C0.375 19.2102 5.72046 24.5557 12.375 24.5557C18.375 24.5557 23.8296 20.192 23.8296 12.5557C23.8296 11.8466 23.7205 11.0829 23.5568 10.3738Z" fill="white"/>
</mask>
<g mask="url(#mask3_29_4578)">
<path d="M25.4659 25.6467L8.55682 12.5558L6.375 10.9194L25.4659 5.46484V25.6467Z" fill="#4285F4"/>
</g>
</g>
<defs>
<clipPath id="clip0_29_4578">
<rect width="24" height="24" fill="white" transform="translate(0 0.555664)"/>
</clipPath>
</defs>
</svg>
